<svg width="1000" height="1000" viewBox="0 0 1000 1000" xmlns="http://www.w3.org/2000/svg"><defs/><path fill="#f0d343" transform="matrix(0.41621722455147225 0 0 0.41621722455147225 56.45179438587263 -7.5171796972757985)" d="M 530.85813132178 1230.50650367231 L 488.75813132178 1230.50650367231 L 488.75813132178 1315.90650367231 C 488.75813132178 1327.80650367231 479.05813132178 1337.50650367231 467.15813132178 1337.50650367231 L 395.05813132178 1337.50650367231 L 395.05813132178 1366.20650367231 C 395.05813132178 1372.80650367231 400.45813132178 1378.20650367231 407.05813132178 1378.20650367231 L 530.85813132178 1378.20650367231 C 537.45813132178 1378.20650367231 542.85813132178 1372.80650367231 542.85813132178 1366.20650367231 L 542.85813132178 1242.50650367231 C 542.85813132178 1235.90650367231 537.45813132178 1230.50650367231 530.85813132178 1230.50650367231 Z"/><path fill="#7d888e" transform="matrix(0.41621722455147225 0 0 0.41621722455147225 56.45179438587263 -7.5171796972757985)" d="M 300.65813132178 1337.60650367231 C 288.75813132178 1337.60650367231 279.05813132178 1327.90650367231 279.05813132178 1316.00650367231 L 279.05813132178 1230.60650367231 L 236.95813132178 1230.60650367231 C 230.35813132178 1230.60650367231 224.95813132178 1236.00650367231 224.95813132178 1242.60650367231 L 224.95813132178 1366.40650367231 C 224.95813132178 1373.00650367231 230.35813132178 1378.40650367231 236.95813132178 1378.40650367231 L 360.75813132178 1378.40650367231 C 367.35813132178 1378.40650367231 372.75813132178 1373.00650367231 372.75813132178 1366.40650367231 L 372.75813132178 1337.70650367231 L 300.65813132178 1337.70650367231 Z"/><path fill="#f0d343" transform="matrix(0.41621722455147225 0 0 0.41621722455147225 56.45179438587263 -7.5171796972757985)" d="M 278.95813132178 1200.20650367231 L 260.65813132178 1200.20650367231 C 247.95813132178 1200.20650367231 245.45813132178 1193.50650367231 255.15813132178 1185.20650367231 L 366.25813132178 1090.30650367231 C 368.15813132178 1088.70650367231 370.25813132178 1087.40650367231 372.55813132178 1086.40650367231 L 372.55813132178 1072.30650367231 C 372.55813132178 1065.70650367231 367.15813132178 1060.30650367231 360.55813132178 1060.30650367231 L 236.75813132178 1060.30650367231 C 230.15813132178 1060.30650367231 224.75813132178 1065.70650367231 224.75813132178 1072.30650367231 L 224.75813132178 1196.10650367231 C 224.75813132178 1202.70650367231 230.15813132178 1208.10650367231 236.75813132178 1208.10650367231 L 278.85813132178 1208.10650367231 L 278.85813132178 1200.20650367231 Z"/><path fill="#7d888e" transform="matrix(0.41621722455147225 0 0 0.41621722455147225 56.45179438587263 -7.5171796972757985)" d="M 530.85813132178 1060.30650367231 L 407.15813132178 1060.30650367231 C 400.55813132178 1060.30650367231 395.15813132178 1065.70650367231 395.15813132178 1072.30650367231 L 395.15813132178 1086.50650367231 C 397.45813132178 1087.50650367231 399.55813132178 1088.80650367231 401.45813132178 1090.40650367231 L 512.55813132178 1185.30650367231 C 522.15813132178 1193.50650367231 519.75813132178 1200.30650367231 507.05813132178 1200.30650367231 L 488.75813132178 1200.30650367231 L 488.75813132178 1208.20650367231 L 530.85813132178 1208.20650367231 C 537.45813132178 1208.20650367231 542.85813132178 1202.80650367231 542.85813132178 1196.20650367231 L 542.85813132178 1072.40650367231 C 542.85813132178 1065.70650367231 537.45813132178 1060.30650367231 530.85813132178 1060.30650367231 Z"/><path fill="#7d888e" transform="matrix(0.41621722455147225 0 0 0.41621722455147225 56.45179438587263 -7.5171796972757985)" d="M 379.55813132178 1270.50650367231 C 379.55813132178 1272.30650367231 378.05813132178 1273.80650367231 376.25813132178 1273.80650367231 L 350.05813132178 1273.80650367231 C 348.25813132178 1273.80650367231 346.75813132178 1272.30650367231 346.75813132178 1270.50650367231 L 346.75813132178 1244.30650367231 C 346.75813132178 1242.50650367231 348.25813132178 1241.00650367231 350.05813132178 1241.00650367231 L 376.25813132178 1241.00650367231 C 378.05813132178 1241.00650367231 379.55813132178 1242.50650367231 379.55813132178 1244.30650367231 L 379.55813132178 1270.50650367231 Z"/><path fill="#7d888e" transform="matrix(0.41621722455147225 0 0 0.41621722455147225 56.45179438587263 -7.5171796972757985)" d="M 379.55813132178 1229.10650367231 C 379.55813132178 1230.90650367231 378.05813132178 1232.40650367231 376.25813132178 1232.40650367231 L 350.05813132178 1232.40650367231 C 348.25813132178 1232.40650367231 346.75813132178 1230.90650367231 346.75813132178 1229.10650367231 L 346.75813132178 1202.90650367231 C 346.75813132178 1201.10650367231 348.25813132178 1199.60650367231 350.05813132178 1199.60650367231 L 376.25813132178 1199.60650367231 C 378.05813132178 1199.60650367231 379.55813132178 1201.10650367231 379.55813132178 1202.90650367231 L 379.55813132178 1229.10650367231 Z"/><path fill="#7d888e" transform="matrix(0.41621722455147225 0 0 0.41621722455147225 56.45179438587263 -7.5171796972757985)" d="M 421.05813132178 1270.50650367231 C 421.05813132178 1272.30650367231 419.55813132178 1273.80650367231 417.75813132178 1273.80650367231 L 391.55813132178 1273.80650367231 C 389.75813132178 1273.80650367231 388.25813132178 1272.30650367231 388.25813132178 1270.50650367231 L 388.25813132178 1244.30650367231 C 388.25813132178 1242.50650367231 389.75813132178 1241.00650367231 391.55813132178 1241.00650367231 L 417.75813132178 1241.00650367231 C 419.55813132178 1241.00650367231 421.05813132178 1242.50650367231 421.05813132178 1244.30650367231 L 421.05813132178 1270.50650367231 Z"/><path fill="#7d888e" transform="matrix(0.41621722455147225 0 0 0.41621722455147225 56.45179438587263 -7.5171796972757985)" d="M 421.05813132178 1229.10650367231 C 421.05813132178 1230.90650367231 419.55813132178 1232.40650367231 417.75813132178 1232.40650367231 L 391.55813132178 1232.40650367231 C 389.75813132178 1232.40650367231 388.25813132178 1230.90650367231 388.25813132178 1229.10650367231 L 388.25813132178 1202.90650367231 C 388.25813132178 1201.10650367231 389.75813132178 1199.60650367231 391.55813132178 1199.60650367231 L 417.75813132178 1199.60650367231 C 419.55813132178 1199.60650367231 421.05813132178 1201.10650367231 421.05813132178 1202.90650367231 L 421.05813132178 1229.10650367231 Z"/><path id="text" fill="#5d6771" transform="matrix(0.5493539597433419 0 0 0.5493539597433419 258.746233629252 18.81503594972314)" d="M 162.783056 804.59861376 C 169.375056 810.61461376 172.671056 818.80661376 172.671056 829.17461376 C 172.671056 839.54261376 169.375056 847.73461376 162.783056 853.75061376 C 156.191056 859.76661376 147.231056 862.77461376 135.903056 862.77461376 L 101.055056 862.77461376 L 101.055056 861.81461376 L 102.303056 861.81461376 C 103.967056 861.81461376 105.391056 861.22261376 106.575056 860.03861376 C 107.759056 858.85461376 108.383056 857.43061376 108.447056 855.76661376 L 108.447056 802.00661376 C 108.447056 800.47061376 107.823056 799.17461376 106.575056 798.11861376 C 105.327056 797.06261376 103.903056 796.53461376 102.303056 796.53461376 L 101.055056 796.53461376 L 101.055056 795.57461376 L 135.903056 795.57461376 C 147.231056 795.57461376 156.191056 798.58261376 162.783056 804.59861376 Z M 134.655056 858.64661376 C 139.263056 858.64661376 143.247056 857.46261376 146.607056 855.09461376 C 149.967056 852.72661376 152.543056 849.31861376 154.335056 844.87061376 C 156.127056 840.42261376 157.023056 835.57461376 157.023056 830.32661376 C 157.023056 825.07861376 156.495056 820.61461376 155.439056 816.93461376 C 154.383056 813.25461376 152.895056 810.13461376 150.975056 807.57461376 C 147.007056 802.26261376 141.567056 799.60661376 134.655056 799.60661376 L 122.847056 799.60661376 L 122.847056 858.64661376 L 134.655056 858.64661376 Z M 223.359056 862.77461376 L 178.143056 862.77461376 L 178.143056 861.81461376 L 179.295056 861.81461376 C 180.767056 861.81461376 181.999056 861.33461376 182.991056 860.37461376 C 183.983056 859.41461376 184.511056 858.23061376 184.575056 856.82261376 L 184.575056 811.12661376 C 184.511056 809.71861376 183.983056 808.53461376 182.991056 807.57461376 C 181.999056 806.61461376 180.767056 806.13461376 179.295056 806.13461376 L 178.143056 806.13461376 L 178.143056 805.17461376 L 211.935056 805.17461376 C 213.663056 805.17461376 215.551056 805.01461376 217.599056 804.69461376 C 219.647056 804.37461376 221.087056 804.05461376 221.919056 803.73461376 L 221.919056 818.99861376 L 220.959056 818.99861376 L 220.959056 818.13461376 C 220.959056 815.31861376 220.191056 813.11061376 218.655056 811.51061376 C 217.119056 809.91061376 214.975056 809.07861376 212.223056 809.01461376 L 198.399056 809.01461376 L 198.399056 832.34261376 L 209.343056 832.34261376 C 211.519056 832.27861376 213.279056 831.54261376 214.623056 830.13461376 C 215.967056 828.72661376 216.639056 826.93461376 216.639056 824.75861376 L 216.639056 824.08661376 L 217.599056 824.08661376 L 217.599056 844.43861376 L 216.639056 844.43861376 L 216.639056 843.76661376 C 216.639056 840.75861376 215.519056 838.58261376 213.279056 837.23861376 C 212.127056 836.53461376 210.847056 836.18261376 209.439056 836.18261376 L 198.399056 836.18261376 L 198.399056 858.93461376 L 209.919056 858.93461376 C 213.887056 858.87061376 217.263056 857.63861376 220.047056 855.23861376 C 222.831056 852.83861376 224.863056 849.46261376 226.143056 845.11061376 L 227.007056 845.11061376 L 223.359056 862.77461376 Z M 233.343056 854.90261376 C 233.343056 850.74261376 234.271056 847.19061376 236.127056 844.24661376 L 236.895056 844.24661376 C 236.831056 844.69461376 236.799056 845.11061376 236.799056 845.49461376 C 236.799056 849.39861376 238.191056 852.82261376 240.975056 855.76661376 C 243.759056 858.71061376 247.647056 860.18261376 252.639056 860.18261376 C 256.223056 860.18261376 258.991056 859.35061376 260.943056 857.68661376 C 262.895056 856.02261376 263.871056 854.16661376 263.871056 852.11861376 C 263.871056 850.07061376 263.311056 848.42261376 262.191056 847.17461376 C 261.071056 845.92661376 259.231056 844.47061376 256.671056 842.80661376 L 243.039056 834.16661376 C 237.279056 830.58261376 234.399056 825.97461376 234.399056 820.34261376 C 234.399056 819.76661376 234.431056 819.15861376 234.495056 818.51861376 C 234.879056 813.97461376 236.639056 810.40661376 239.775056 807.81461376 C 242.911056 805.22261376 246.607056 803.92661376 250.863056 803.92661376 C 255.119056 803.92661376 259.615056 804.21461376 264.351056 804.79061376 L 269.535056 804.79061376 L 268.191056 817.46261376 L 267.327056 817.46261376 C 267.327056 814.45461376 266.287056 812.08661376 264.207056 810.35861376 C 262.127056 808.63061376 259.375056 807.76661376 255.951056 807.76661376 C 252.527056 807.76661376 249.823056 808.48661376 247.839056 809.92661376 C 245.855056 811.36661376 244.863056 813.27061376 244.863056 815.63861376 C 244.863056 817.55861376 245.823056 819.22261376 247.743056 820.63061376 C 248.511056 821.20661376 249.631056 821.94261376 251.103056 822.83861376 L 266.367056 832.24661376 C 271.615056 835.44661376 274.239056 839.86261376 274.239056 845.49461376 C 274.239056 851.44661376 272.143056 856.02261376 267.951056 859.22261376 C 263.759056 862.42261376 258.335056 864.02261376 251.679056 864.02261376 C 247.583056 864.02261376 243.967056 863.54261376 240.831056 862.58261376 C 237.695056 861.62261376 235.391056 860.40661376 233.919056 858.93461376 C 233.535056 857.78261376 233.343056 856.43861376 233.343056 854.90261376 Z M 291.327056 856.00661376 C 285.183056 850.72661376 282.111056 843.38261376 282.111056 833.97461376 C 282.111056 824.56661376 285.167056 817.20661376 291.279056 811.89461376 C 297.391056 806.58261376 305.855056 803.92661376 316.671056 803.92661376 C 325.119056 803.92661376 332.319056 805.39861376 338.271056 808.34261376 L 338.271056 823.60661376 L 337.599056 823.60661376 C 335.999056 817.91061376 333.535056 813.84661376 330.207056 811.41461376 C 326.879056 808.98261376 322.687056 807.76661376 317.631056 807.76661376 C 310.847056 807.76661376 305.663056 810.08661376 302.079056 814.72661376 C 298.495056 819.36661376 296.703056 825.70261376 296.703056 833.73461376 C 296.703056 841.76661376 298.463056 848.15061376 301.983056 852.88661376 C 305.631056 857.75061376 310.591056 860.18261376 316.863056 860.18261376 C 321.407056 860.18261376 325.151056 859.47861376 328.095056 858.07061376 C 331.039056 856.66261376 333.375056 854.40661376 335.103056 851.30261376 C 336.831056 848.19861376 338.111056 843.99061376 338.943056 838.67861376 L 339.615056 838.67861376 L 340.767056 853.17461376 C 338.783056 856.43861376 335.759056 859.06261376 331.695056 861.04661376 C 327.631056 863.03061376 322.623056 864.02261376 316.671056 864.02261376 C 305.919056 863.95861376 297.471056 861.28661376 291.327056 856.00661376 Z M 371.487056 809.11061376 L 368.415056 809.11061376 L 368.415056 856.72661376 C 368.415056 858.26261376 368.943056 859.49461376 369.999056 860.42261376 C 371.055056 861.35061376 372.255056 861.81461376 373.599056 861.81461376 L 374.655056 861.81461376 L 374.655056 862.77461376 L 348.255056 862.77461376 L 348.255056 861.81461376 L 349.407056 861.81461376 C 350.815056 861.81461376 352.015056 861.33461376 353.007056 860.37461376 C 353.999056 859.41461376 354.495056 858.23061376 354.495056 856.82261376 L 354.495056 811.12661376 C 354.495056 809.71861376 353.999056 808.53461376 353.007056 807.57461376 C 352.015056 806.61461376 350.847056 806.13461376 349.503056 806.13461376 L 348.255056 806.13461376 L 348.255056 805.17461376 L 377.727056 805.17461376 C 383.487056 805.17461376 388.319056 806.29461376 392.223056 808.53461376 C 396.575056 811.03061376 398.751056 815.15861376 398.751056 820.91861376 C 398.751056 824.63061376 397.631056 827.97461376 395.391056 830.95061376 C 393.151056 833.92661376 389.823056 835.73461376 385.407056 836.37461376 C 387.135056 836.95061376 388.847056 838.03861376 390.543056 839.63861376 C 392.239056 841.23861376 393.599056 842.87061376 394.623056 844.53461376 C 396.671056 848.18261376 398.815056 851.52661376 401.055056 854.56661376 C 403.295056 857.60661376 405.103056 859.57461376 406.479056 860.47061376 C 407.855056 861.36661376 409.535056 861.81461376 411.519056 861.81461376 L 411.519056 862.77461376 L 403.455056 862.77461376 C 398.143056 862.77461376 394.063056 862.13461376 391.215056 860.85461376 C 388.367056 859.57461376 385.823056 857.14261376 383.583056 853.55861376 C 380.127056 848.05461376 377.983056 843.70261376 377.151056 840.50261376 C 376.383056 838.58261376 375.471056 837.14261376 374.415056 836.18261376 C 373.359056 835.22261376 372.351056 834.67861376 371.391056 834.55061376 L 371.391056 833.78261376 L 373.791056 833.78261376 C 379.231056 833.71861376 382.559056 830.51861376 383.775056 824.18261376 C 384.031056 823.22261376 384.159056 822.39061376 384.159056 821.68661376 C 384.159056 820.98261376 384.127056 820.00661376 384.063056 818.75861376 C 383.999056 817.51061376 383.599056 816.10261376 382.863056 814.53461376 C 382.127056 812.96661376 381.183056 811.83061376 380.031056 811.12661376 C 378.047056 809.91061376 375.999056 809.27061376 373.887056 809.20661376 C 373.183056 809.14261376 372.383056 809.11061376 371.487056 809.11061376 Z M 410.655056 861.81461376 L 411.807056 861.81461376 C 413.343056 861.81461376 414.655056 861.31861376 415.743056 860.32661376 C 416.831056 859.33461376 417.375056 858.13461376 417.375056 856.72661376 L 417.375056 811.22261376 C 417.375056 809.81461376 416.831056 808.61461376 415.743056 807.62261376 C 414.655056 806.63061376 413.343056 806.13461376 411.807056 806.13461376 L 410.655056 806.13461376 L 410.655056 805.17461376 L 437.919056 805.17461376 L 437.919056 806.13461376 L 436.767056 806.13461376 C 435.295056 806.13461376 434.015056 806.61461376 432.927056 807.57461376 C 431.839056 808.53461376 431.263056 809.71861376 431.199056 811.12661376 L 431.199056 856.72661376 C 431.263056 858.19861376 431.839056 859.41461376 432.927056 860.37461376 C 434.015056 861.33461376 435.295056 861.81461376 436.767056 861.81461376 L 437.919056 861.81461376 L 437.919056 862.77461376 L 410.655056 862.77461376 L 410.655056 861.81461376 Z M 491.487056 819.47861376 C 491.487056 821.84661376 490.975056 823.92661376 489.951056 825.71861376 C 487.967056 829.17461376 484.959056 831.06261376 480.927056 831.38261376 C 485.215056 831.70261376 488.799056 833.22261376 491.679056 835.94261376 C 494.559056 838.66261376 495.999056 842.13461376 495.999056 846.35861376 C 495.999056 854.61461376 491.039056 859.79861376 481.119056 861.91061376 C 478.303056 862.48661376 475.231056 862.77461376 471.903056 862.77461376 L 444.063056 862.77461376 L 444.063056 861.81461376 L 445.119056 861.81461376 C 446.591056 861.81461376 447.823056 861.33461376 448.815056 860.37461376 C 449.807056 859.41461376 450.335056 858.19861376 450.399056 856.72661376 L 450.399056 811.22261376 C 450.335056 808.91861376 449.247056 807.35061376 447.135056 806.51861376 C 446.495056 806.26261376 445.823056 806.13461376 445.119056 806.13461376 L 444.063056 806.13461376 L 444.063056 805.17461376 L 469.791056 805.17461376 C 484.255056 805.17461376 491.487056 809.94261376 491.487056 819.47861376 Z M 480.447056 845.49461376 C 480.447056 842.55061376 479.839056 840.08661376 478.623056 838.10261376 C 476.383056 834.26261376 472.511056 832.34261376 467.007056 832.34261376 C 466.943056 832.34261376 466.879056 832.34261376 466.815056 832.34261376 L 466.815056 831.47861376 C 469.887056 831.47861376 472.383056 830.58261376 474.303056 828.79061376 C 476.223056 826.99861376 477.183056 824.21461376 477.183056 820.43861376 C 477.183056 812.75861376 473.695056 808.91861376 466.719056 808.91861376 L 464.031056 808.91861376 L 464.031056 858.93461376 L 467.871056 858.93461376 C 471.583056 858.93461376 474.607056 857.84661376 476.943056 855.67061376 C 479.279056 853.49461376 480.447056 850.10261376 480.447056 845.49461376 Z M 547.071056 862.77461376 L 501.855056 862.77461376 L 501.855056 861.81461376 L 503.007056 861.81461376 C 504.479056 861.81461376 505.711056 861.33461376 506.703056 860.37461376 C 507.695056 859.41461376 508.223056 858.23061376 508.287056 856.82261376 L 508.287056 811.12661376 C 508.223056 809.71861376 507.695056 808.53461376 506.703056 807.57461376 C 505.711056 806.61461376 504.479056 806.13461376 503.007056 806.13461376 L 501.855056 806.13461376 L 501.855056 805.17461376 L 535.647056 805.17461376 C 537.375056 805.17461376 539.263056 805.01461376 541.311056 804.69461376 C 543.359056 804.37461376 544.799056 804.05461376 545.631056 803.73461376 L 545.631056 818.99861376 L 544.671056 818.99861376 L 544.671056 818.13461376 C 544.671056 815.31861376 543.903056 813.11061376 542.367056 811.51061376 C 540.831056 809.91061376 538.687056 809.07861376 535.935056 809.01461376 L 522.111056 809.01461376 L 522.111056 832.34261376 L 533.055056 832.34261376 C 535.231056 832.27861376 536.991056 831.54261376 538.335056 830.13461376 C 539.679056 828.72661376 540.351056 826.93461376 540.351056 824.75861376 L 540.351056 824.08661376 L 541.311056 824.08661376 L 541.311056 844.43861376 L 540.351056 844.43861376 L 540.351056 843.76661376 C 540.351056 840.75861376 539.231056 838.58261376 536.991056 837.23861376 C 535.839056 836.53461376 534.559056 836.18261376 533.151056 836.18261376 L 522.111056 836.18261376 L 522.111056 858.93461376 L 533.631056 858.93461376 C 537.599056 858.87061376 540.975056 857.63861376 543.759056 855.23861376 C 546.543056 852.83861376 548.575056 849.46261376 549.855056 845.11061376 L 550.719056 845.11061376 L 547.071056 862.77461376 Z M 581.919056 861.81461376 C 583.583056 861.81461376 585.007056 861.22261376 586.191056 860.03861376 C 587.375056 858.85461376 587.999056 857.43061376 588.063056 855.76661376 L 588.063056 802.48661376 C 587.999056 800.82261376 587.375056 799.41461376 586.191056 798.26261376 C 585.007056 797.11061376 583.583056 796.53461376 581.919056 796.53461376 L 580.671056 796.53461376 L 580.671056 795.57461376 L 609.855056 795.57461376 L 609.759056 796.53461376 L 608.607056 796.53461376 C 606.943056 796.53461376 605.503056 797.11061376 604.287056 798.26261376 C 603.071056 799.41461376 602.463056 800.82261376 602.463056 802.48661376 L 602.463056 855.76661376 C 602.463056 857.43061376 603.071056 858.85461376 604.287056 860.03861376 C 605.503056 861.22261376 606.943056 861.81461376 608.607056 861.81461376 L 609.759056 861.81461376 L 609.855056 862.77461376 L 580.671056 862.77461376 L 580.671056 861.81461376 L 581.919056 861.81461376 Z M 669.279056 818.80661376 L 669.279056 817.94261376 C 669.279056 815.19061376 668.511056 813.01461376 666.975056 811.41461376 C 665.439056 809.81461376 663.295056 808.98261376 660.543056 808.91861376 L 649.407056 808.91861376 L 649.407056 856.82261376 C 649.471056 858.23061376 650.015056 859.41461376 651.039056 860.37461376 C 652.063056 861.33461376 653.279056 861.81461376 654.687056 861.81461376 L 655.743056 861.81461376 L 655.743056 862.77461376 L 629.247056 862.77461376 L 629.247056 861.81461376 L 630.207056 861.81461376 C 631.679056 861.81461376 632.927056 861.33461376 633.951056 860.37461376 C 634.975056 859.41461376 635.487056 858.19861376 635.487056 856.72661376 L 635.487056 808.91861376 L 624.447056 808.91861376 C 621.631056 808.98261376 619.455056 809.81461376 617.919056 811.41461376 C 616.383056 813.01461376 615.615056 815.19061376 615.615056 817.94261376 L 615.615056 818.80661376 L 614.655056 818.80661376 L 614.655056 803.63861376 C 615.551056 803.95861376 617.039056 804.27861376 619.119056 804.59861376 C 621.199056 804.91861376 623.071056 805.07861376 624.735056 805.07861376 L 660.159056 805.07861376 C 662.975056 805.07861376 665.295056 804.87061376 667.119056 804.45461376 C 668.943056 804.03861376 669.983056 803.76661376 670.239056 803.63861376 L 670.239056 818.80661376 L 669.279056 818.80661376 Z"/><path id="text" fill="#112537" transform="matrix(0.27467697987167095 0 0 0.27467697987167095 260.064683132636 69.97966634437904)" d="M 242.622112 1658.63722752 L 242.622112 1665.74122752 L 224.382112 1665.74122752 L 224.382112 1725.54922752 L 215.646112 1725.54922752 L 215.646112 1665.74122752 L 197.310112 1665.74122752 L 197.310112 1658.63722752 L 242.622112 1658.63722752 Z M 268.638112 1721.85322752 C 263.518112 1718.94122752 259.470112 1714.87722752 256.494112 1709.66122752 C 253.518112 1704.44522752 252.030112 1698.57322752 252.030112 1692.04522752 C 252.030112 1685.51722752 253.518112 1679.64522752 256.494112 1674.42922752 C 259.470112 1669.21322752 263.518112 1665.14922752 268.638112 1662.23722752 C 273.758112 1659.32522752 279.422112 1657.86922752 285.630112 1657.86922752 C 291.902112 1657.86922752 297.598112 1659.32522752 302.718112 1662.23722752 C 307.838112 1665.14922752 311.870112 1669.19722752 314.814112 1674.38122752 C 317.758112 1679.56522752 319.230112 1685.45322752 319.230112 1692.04522752 C 319.230112 1698.63722752 317.758112 1704.52522752 314.814112 1709.70922752 C 311.870112 1714.89322752 307.838112 1718.94122752 302.718112 1721.85322752 C 297.598112 1724.76522752 291.902112 1726.22122752 285.630112 1726.22122752 C 279.422112 1726.22122752 273.758112 1724.76522752 268.638112 1721.85322752 Z M 298.254112 1715.37322752 C 301.998112 1713.19722752 304.942112 1710.09322752 307.086112 1706.06122752 C 309.230112 1702.02922752 310.302112 1697.35722752 310.302112 1692.04522752 C 310.302112 1686.66922752 309.230112 1681.98122752 307.086112 1677.98122752 C 304.942112 1673.98122752 302.014112 1670.89322752 298.302112 1668.71722752 C 294.590112 1666.54122752 290.366112 1665.45322752 285.630112 1665.45322752 C 280.894112 1665.45322752 276.670112 1666.54122752 272.958112 1668.71722752 C 269.246112 1670.89322752 266.318112 1673.98122752 264.174112 1677.98122752 C 262.030112 1681.98122752 260.958112 1686.66922752 260.958112 1692.04522752 C 260.958112 1697.35722752 262.030112 1702.02922752 264.174112 1706.06122752 C 266.318112 1710.09322752 269.262112 1713.19722752 273.006112 1715.37322752 C 276.750112 1717.54922752 280.958112 1718.63722752 285.630112 1718.63722752 C 290.302112 1718.63722752 294.510112 1717.54922752 298.254112 1715.37322752 Z M 371.694112 1692.09322752 C 367.886112 1695.77322752 362.078112 1697.61322752 354.270112 1697.61322752 L 341.406112 1697.61322752 L 341.406112 1725.54922752 L 332.670112 1725.54922752 L 332.670112 1658.63722752 L 354.270112 1658.63722752 C 361.822112 1658.63722752 367.566112 1660.46122752 371.502112 1664.10922752 C 375.438112 1667.75722752 377.406112 1672.46122752 377.406112 1678.22122752 C 377.406112 1683.78922752 375.502112 1688.41322752 371.694112 1692.09322752 Z M 365.022112 1687.24522752 C 367.326112 1685.13322752 368.478112 1682.12522752 368.478112 1678.22122752 C 368.478112 1669.96522752 363.742112 1665.83722752 354.270112 1665.83722752 L 341.406112 1665.83722752 L 341.406112 1690.41322752 L 354.270112 1690.41322752 C 359.134112 1690.41322752 362.718112 1689.35722752 365.022112 1687.24522752 Z M 470.334112 1725.54922752 L 461.598112 1725.54922752 L 426.462112 1672.26922752 L 426.462112 1725.54922752 L 417.726112 1725.54922752 L 417.726112 1658.54122752 L 426.462112 1658.54122752 L 461.598112 1711.72522752 L 461.598112 1658.54122752 L 470.334112 1658.54122752 L 470.334112 1725.54922752 Z M 500.478112 1721.85322752 C 495.358112 1718.94122752 491.310112 1714.87722752 488.334112 1709.66122752 C 485.358112 1704.44522752 483.870112 1698.57322752 483.870112 1692.04522752 C 483.870112 1685.51722752 485.358112 1679.64522752 488.334112 1674.42922752 C 491.310112 1669.21322752 495.358112 1665.14922752 500.478112 1662.23722752 C 505.598112 1659.32522752 511.262112 1657.86922752 517.470112 1657.86922752 C 523.742112 1657.86922752 529.438112 1659.32522752 534.558112 1662.23722752 C 539.678112 1665.14922752 543.710112 1669.19722752 546.654112 1674.38122752 C 549.598112 1679.56522752 551.070112 1685.45322752 551.070112 1692.04522752 C 551.070112 1698.63722752 549.598112 1704.52522752 546.654112 1709.70922752 C 543.710112 1714.89322752 539.678112 1718.94122752 534.558112 1721.85322752 C 529.438112 1724.76522752 523.742112 1726.22122752 517.470112 1726.22122752 C 511.262112 1726.22122752 505.598112 1724.76522752 500.478112 1721.85322752 Z M 530.094112 1715.37322752 C 533.838112 1713.19722752 536.782112 1710.09322752 538.926112 1706.06122752 C 541.070112 1702.02922752 542.142112 1697.35722752 542.142112 1692.04522752 C 542.142112 1686.66922752 541.070112 1681.98122752 538.926112 1677.98122752 C 536.782112 1673.98122752 533.854112 1670.89322752 530.142112 1668.71722752 C 526.430112 1666.54122752 522.206112 1665.45322752 517.470112 1665.45322752 C 512.734112 1665.45322752 508.510112 1666.54122752 504.798112 1668.71722752 C 501.086112 1670.89322752 498.158112 1673.98122752 496.014112 1677.98122752 C 493.870112 1681.98122752 492.798112 1686.66922752 492.798112 1692.04522752 C 492.798112 1697.35722752 493.870112 1702.02922752 496.014112 1706.06122752 C 498.158112 1710.09322752 501.102112 1713.19722752 504.846112 1715.37322752 C 508.590112 1717.54922752 512.798112 1718.63722752 517.470112 1718.63722752 C 522.142112 1718.63722752 526.350112 1717.54922752 530.094112 1715.37322752 Z M 605.694112 1658.63722752 L 605.694112 1665.74122752 L 587.454112 1665.74122752 L 587.454112 1725.54922752 L 578.718112 1725.54922752 L 578.718112 1665.74122752 L 560.382112 1665.74122752 L 560.382112 1658.63722752 L 605.694112 1658.63722752 Z M 619.518112 1674.42922752 C 622.462112 1669.21322752 626.478112 1665.13322752 631.566112 1662.18922752 C 636.654112 1659.24522752 642.302112 1657.77322752 648.510112 1657.77322752 C 655.806112 1657.77322752 662.174112 1659.53322752 667.614112 1663.05322752 C 673.054112 1666.57322752 677.022112 1671.56522752 679.518112 1678.02922752 L 669.054112 1678.02922752 C 667.198112 1673.99722752 664.526112 1670.89322752 661.038112 1668.71722752 C 657.550112 1666.54122752 653.374112 1665.45322752 648.510112 1665.45322752 C 643.838112 1665.45322752 639.646112 1666.54122752 635.934112 1668.71722752 C 632.222112 1670.89322752 629.310112 1673.98122752 627.198112 1677.98122752 C 625.086112 1681.98122752 624.030112 1686.66922752 624.030112 1692.04522752 C 624.030112 1697.35722752 625.086112 1702.01322752 627.198112 1706.01322752 C 629.310112 1710.01322752 632.222112 1713.10122752 635.934112 1715.27722752 C 639.646112 1717.45322752 643.838112 1718.54122752 648.510112 1718.54122752 C 653.374112 1718.54122752 657.550112 1717.46922752 661.038112 1715.32522752 C 664.526112 1713.18122752 667.198112 1710.09322752 669.054112 1706.06122752 L 679.518112 1706.06122752 C 677.022112 1712.46122752 673.054112 1717.40522752 667.614112 1720.89322752 C 662.174112 1724.38122752 655.806112 1726.12522752 648.510112 1726.12522752 C 642.302112 1726.12522752 636.654112 1724.66922752 631.566112 1721.75722752 C 626.478112 1718.84522752 622.462112 1714.79722752 619.518112 1709.61322752 C 616.574112 1704.42922752 615.102112 1698.57322752 615.102112 1692.04522752 C 615.102112 1685.51722752 616.574112 1679.64522752 619.518112 1674.42922752 Z M 745.950112 1658.63722752 L 745.950112 1725.54922752 L 737.214112 1725.54922752 L 737.214112 1695.21322752 L 703.134112 1695.21322752 L 703.134112 1725.54922752 L 694.398112 1725.54922752 L 694.398112 1658.63722752 L 703.134112 1658.63722752 L 703.134112 1688.01322752 L 737.214112 1688.01322752 L 737.214112 1658.63722752 L 745.950112 1658.63722752 Z M 841.854112 1658.63722752 L 841.854112 1725.54922752 L 833.118112 1725.54922752 L 833.118112 1695.21322752 L 799.038112 1695.21322752 L 799.038112 1725.54922752 L 790.302112 1725.54922752 L 790.302112 1658.63722752 L 799.038112 1658.63722752 L 799.038112 1688.01322752 L 833.118112 1688.01322752 L 833.118112 1658.63722752 L 841.854112 1658.63722752 Z M 871.998112 1721.85322752 C 866.878112 1718.94122752 862.830112 1714.87722752 859.854112 1709.66122752 C 856.878112 1704.44522752 855.390112 1698.57322752 855.390112 1692.04522752 C 855.390112 1685.51722752 856.878112 1679.64522752 859.854112 1674.42922752 C 862.830112 1669.21322752 866.878112 1665.14922752 871.998112 1662.23722752 C 877.118112 1659.32522752 882.782112 1657.86922752 888.990112 1657.86922752 C 895.262112 1657.86922752 900.958112 1659.32522752 906.078112 1662.23722752 C 911.198112 1665.14922752 915.230112 1669.19722752 918.174112 1674.38122752 C 921.118112 1679.56522752 922.590112 1685.45322752 922.590112 1692.04522752 C 922.590112 1698.63722752 921.118112 1704.52522752 918.174112 1709.70922752 C 915.230112 1714.89322752 911.198112 1718.94122752 906.078112 1721.85322752 C 900.958112 1724.76522752 895.262112 1726.22122752 888.990112 1726.22122752 C 882.782112 1726.22122752 877.118112 1724.76522752 871.998112 1721.85322752 Z M 901.614112 1715.37322752 C 905.358112 1713.19722752 908.302112 1710.09322752 910.446112 1706.06122752 C 912.590112 1702.02922752 913.662112 1697.35722752 913.662112 1692.04522752 C 913.662112 1686.66922752 912.590112 1681.98122752 910.446112 1677.98122752 C 908.302112 1673.98122752 905.374112 1670.89322752 901.662112 1668.71722752 C 897.950112 1666.54122752 893.726112 1665.45322752 888.990112 1665.45322752 C 884.254112 1665.45322752 880.030112 1666.54122752 876.318112 1668.71722752 C 872.606112 1670.89322752 869.678112 1673.98122752 867.534112 1677.98122752 C 865.390112 1681.98122752 864.318112 1686.66922752 864.318112 1692.04522752 C 864.318112 1697.35722752 865.390112 1702.02922752 867.534112 1706.06122752 C 869.678112 1710.09322752 872.622112 1713.19722752 876.366112 1715.37322752 C 880.110112 1717.54922752 884.318112 1718.63722752 888.990112 1718.63722752 C 893.662112 1718.63722752 897.870112 1717.54922752 901.614112 1715.37322752 Z M 1003.902112 1659.11722752 L 1003.902112 1725.54922752 L 995.166112 1725.54922752 L 995.166112 1676.01322752 L 973.086112 1725.54922752 L 966.942112 1725.54922752 L 944.766112 1675.91722752 L 944.766112 1725.54922752 L 936.030112 1725.54922752 L 936.030112 1659.11722752 L 945.438112 1659.11722752 L 970.014112 1714.02922752 L 994.590112 1659.11722752 L 1003.902112 1659.11722752 Z M 1029.342112 1665.74122752 L 1029.342112 1688.10922752 L 1053.726112 1688.10922752 L 1053.726112 1695.30922752 L 1029.342112 1695.30922752 L 1029.342112 1718.34922752 L 1056.606112 1718.34922752 L 1056.606112 1725.54922752 L 1020.606112 1725.54922752 L 1020.606112 1658.54122752 L 1056.606112 1658.54122752 L 1056.606112 1665.74122752 L 1029.342112 1665.74122752 Z M 1108.062112 1718.44522752 L 1131.486112 1718.44522752 L 1131.486112 1725.54922752 L 1099.326112 1725.54922752 L 1099.326112 1658.63722752 L 1108.062112 1658.63722752 L 1108.062112 1718.44522752 Z M 1151.454112 1658.63722752 L 1151.454112 1725.54922752 L 1142.718112 1725.54922752 L 1142.718112 1658.63722752 L 1151.454112 1658.63722752 Z M 1177.614112 1723.86922752 C 1174.126112 1722.30122752 1171.390112 1720.12522752 1169.406112 1717.34122752 C 1167.422112 1714.55722752 1166.398112 1711.34122752 1166.334112 1707.69322752 L 1175.646112 1707.69322752 C 1175.966112 1710.82922752 1177.262112 1713.46922752 1179.534112 1715.61322752 C 1181.806112 1717.75722752 1185.118112 1718.82922752 1189.470112 1718.82922752 C 1193.630112 1718.82922752 1196.910112 1717.78922752 1199.310112 1715.70922752 C 1201.710112 1713.62922752 1202.910112 1710.95722752 1202.910112 1707.69322752 C 1202.910112 1705.13322752 1202.206112 1703.05322752 1200.798112 1701.45322752 C 1199.390112 1699.85322752 1197.630112 1698.63722752 1195.518112 1697.80522752 C 1193.406112 1696.97322752 1190.558112 1696.07722752 1186.974112 1695.11722752 C 1182.558112 1693.96522752 1179.022112 1692.81322752 1176.366112 1691.66122752 C 1173.710112 1690.50922752 1171.438112 1688.70122752 1169.550112 1686.23722752 C 1167.662112 1683.77322752 1166.718112 1680.46122752 1166.718112 1676.30122752 C 1166.718112 1672.65322752 1167.646112 1669.42122752 1169.502112 1666.60522752 C 1171.358112 1663.78922752 1173.966112 1661.61322752 1177.326112 1660.07722752 C 1180.686112 1658.54122752 1184.542112 1657.77322752 1188.894112 1657.77322752 C 1195.166112 1657.77322752 1200.302112 1659.34122752 1204.302112 1662.47722752 C 1208.302112 1665.61322752 1210.558112 1669.77322752 1211.070112 1674.95722752 L 1201.470112 1674.95722752 C 1201.150112 1672.39722752 1199.806112 1670.14122752 1197.438112 1668.18922752 C 1195.070112 1666.23722752 1191.934112 1665.26122752 1188.030112 1665.26122752 C 1184.382112 1665.26122752 1181.406112 1666.20522752 1179.102112 1668.09322752 C 1176.798112 1669.98122752 1175.646112 1672.62122752 1175.646112 1676.01322752 C 1175.646112 1678.44522752 1176.334112 1680.42922752 1177.710112 1681.96522752 C 1179.086112 1683.50122752 1180.782112 1684.66922752 1182.798112 1685.46922752 C 1184.814112 1686.26922752 1187.646112 1687.18122752 1191.294112 1688.20522752 C 1195.710112 1689.42122752 1199.262112 1690.62122752 1201.950112 1691.80522752 C 1204.638112 1692.98922752 1206.942112 1694.81322752 1208.862112 1697.27722752 C 1210.782112 1699.74122752 1211.742112 1703.08522752 1211.742112 1707.30922752 C 1211.742112 1710.57322752 1210.878112 1713.64522752 1209.150112 1716.52522752 C 1207.422112 1719.40522752 1204.862112 1721.74122752 1201.470112 1723.53322752 C 1198.078112 1725.32522752 1194.078112 1726.22122752 1189.470112 1726.22122752 C 1185.054112 1726.22122752 1181.102112 1725.43722752 1177.614112 1723.86922752 Z M 1267.710112 1658.63722752 L 1267.710112 1665.74122752 L 1249.470112 1665.74122752 L 1249.470112 1725.54922752 L 1240.734112 1725.54922752 L 1240.734112 1665.74122752 L 1222.398112 1665.74122752 L 1222.398112 1658.63722752 L 1267.710112 1658.63722752 Z M 1289.118112 1658.63722752 L 1289.118112 1725.54922752 L 1280.382112 1725.54922752 L 1280.382112 1658.63722752 L 1289.118112 1658.63722752 Z M 1358.526112 1725.54922752 L 1349.790112 1725.54922752 L 1314.654112 1672.26922752 L 1314.654112 1725.54922752 L 1305.918112 1725.54922752 L 1305.918112 1658.54122752 L 1314.654112 1658.54122752 L 1349.790112 1711.72522752 L 1349.790112 1658.54122752 L 1358.526112 1658.54122752 L 1358.526112 1725.54922752 Z M 1426.014112 1678.02922752 C 1424.158112 1674.12522752 1421.470112 1671.10122752 1417.950112 1668.95722752 C 1414.430112 1666.81322752 1410.334112 1665.74122752 1405.662112 1665.74122752 C 1400.990112 1665.74122752 1396.782112 1666.81322752 1393.038112 1668.95722752 C 1389.294112 1671.10122752 1386.350112 1674.17322752 1384.206112 1678.17322752 C 1382.062112 1682.17322752 1380.990112 1686.79722752 1380.990112 1692.04522752 C 1380.990112 1697.29322752 1382.062112 1701.90122752 1384.206112 1705.86922752 C 1386.350112 1709.83722752 1389.294112 1712.89322752 1393.038112 1715.03722752 C 1396.782112 1717.18122752 1400.990112 1718.25322752 1405.662112 1718.25322752 C 1412.190112 1718.25322752 1417.566112 1716.30122752 1421.790112 1712.39722752 C 1426.014112 1708.49322752 1428.478112 1703.21322752 1429.182112 1696.55722752 L 1402.494112 1696.55722752 L 1402.494112 1689.45322752 L 1438.494112 1689.45322752 L 1438.494112 1696.17322752 C 1437.982112 1701.67722752 1436.254112 1706.71722752 1433.310112 1711.29322752 C 1430.366112 1715.86922752 1426.494112 1719.48522752 1421.694112 1722.14122752 C 1416.894112 1724.79722752 1411.550112 1726.12522752 1405.662112 1726.12522752 C 1399.454112 1726.12522752 1393.790112 1724.66922752 1388.670112 1721.75722752 C 1383.550112 1718.84522752 1379.502112 1714.79722752 1376.526112 1709.61322752 C 1373.550112 1704.42922752 1372.062112 1698.57322752 1372.062112 1692.04522752 C 1372.062112 1685.51722752 1373.550112 1679.64522752 1376.526112 1674.42922752 C 1379.502112 1669.21322752 1383.550112 1665.14922752 1388.670112 1662.23722752 C 1393.790112 1659.32522752 1399.454112 1657.86922752 1405.662112 1657.86922752 C 1412.766112 1657.86922752 1419.054112 1659.62922752 1424.526112 1663.14922752 C 1429.998112 1666.66922752 1433.982112 1671.62922752 1436.478112 1678.02922752 L 1426.014112 1678.02922752 Z M 1519.278112 1662.71722752 C 1524.622112 1665.43722752 1528.718112 1669.32522752 1531.566112 1674.38122752 C 1534.414112 1679.43722752 1535.838112 1685.38922752 1535.838112 1692.23722752 C 1535.838112 1699.08522752 1534.414112 1705.02122752 1531.566112 1710.04522752 C 1528.718112 1715.06922752 1524.622112 1718.90922752 1519.278112 1721.56522752 C 1513.934112 1724.22122752 1507.614112 1725.54922752 1500.318112 1725.54922752 L 1479.486112 1725.54922752 L 1479.486112 1658.63722752 L 1500.318112 1658.63722752 C 1507.614112 1658.63722752 1513.934112 1659.99722752 1519.278112 1662.71722752 Z M 1520.094112 1711.48522752 C 1524.638112 1706.90922752 1526.910112 1700.49322752 1526.910112 1692.23722752 C 1526.910112 1683.91722752 1524.622112 1677.42122752 1520.046112 1672.74922752 C 1515.470112 1668.07722752 1508.894112 1665.74122752 1500.318112 1665.74122752 L 1488.222112 1665.74122752 L 1488.222112 1718.34922752 L 1500.318112 1718.34922752 C 1508.958112 1718.34922752 1515.550112 1716.06122752 1520.094112 1711.48522752 Z M 1558.014112 1665.74122752 L 1558.014112 1688.10922752 L 1582.398112 1688.10922752 L 1582.398112 1695.30922752 L 1558.014112 1695.30922752 L 1558.014112 1718.34922752 L 1585.278112 1718.34922752 L 1585.278112 1725.54922752 L 1549.278112 1725.54922752 L 1549.278112 1658.54122752 L 1585.278112 1658.54122752 L 1585.278112 1665.74122752 L 1558.014112 1665.74122752 Z M 1609.806112 1723.86922752 C 1606.318112 1722.30122752 1603.582112 1720.12522752 1601.598112 1717.34122752 C 1599.614112 1714.55722752 1598.590112 1711.34122752 1598.526112 1707.69322752 L 1607.838112 1707.69322752 C 1608.158112 1710.82922752 1609.454112 1713.46922752 1611.726112 1715.61322752 C 1613.998112 1717.75722752 1617.310112 1718.82922752 1621.662112 1718.82922752 C 1625.822112 1718.82922752 1629.102112 1717.78922752 1631.502112 1715.70922752 C 1633.902112 1713.62922752 1635.102112 1710.95722752 1635.102112 1707.69322752 C 1635.102112 1705.13322752 1634.398112 1703.05322752 1632.990112 1701.45322752 C 1631.582112 1699.85322752 1629.822112 1698.63722752 1627.710112 1697.80522752 C 1625.598112 1696.97322752 1622.750112 1696.07722752 1619.166112 1695.11722752 C 1614.750112 1693.96522752 1611.214112 1692.81322752 1608.558112 1691.66122752 C 1605.902112 1690.50922752 1603.630112 1688.70122752 1601.742112 1686.23722752 C 1599.854112 1683.77322752 1598.910112 1680.46122752 1598.910112 1676.30122752 C 1598.910112 1672.65322752 1599.838112 1669.42122752 1601.694112 1666.60522752 C 1603.550112 1663.78922752 1606.158112 1661.61322752 1609.518112 1660.07722752 C 1612.878112 1658.54122752 1616.734112 1657.77322752 1621.086112 1657.77322752 C 1627.358112 1657.77322752 1632.494112 1659.34122752 1636.494112 1662.47722752 C 1640.494112 1665.61322752 1642.750112 1669.77322752 1643.262112 1674.95722752 L 1633.662112 1674.95722752 C 1633.342112 1672.39722752 1631.998112 1670.14122752 1629.630112 1668.18922752 C 1627.262112 1666.23722752 1624.126112 1665.26122752 1620.222112 1665.26122752 C 1616.574112 1665.26122752 1613.598112 1666.20522752 1611.294112 1668.09322752 C 1608.990112 1669.98122752 1607.838112 1672.62122752 1607.838112 1676.01322752 C 1607.838112 1678.44522752 1608.526112 1680.42922752 1609.902112 1681.96522752 C 1611.278112 1683.50122752 1612.974112 1684.66922752 1614.990112 1685.46922752 C 1617.006112 1686.26922752 1619.838112 1687.18122752 1623.486112 1688.20522752 C 1627.902112 1689.42122752 1631.454112 1690.62122752 1634.142112 1691.80522752 C 1636.830112 1692.98922752 1639.134112 1694.81322752 1641.054112 1697.27722752 C 1642.974112 1699.74122752 1643.934112 1703.08522752 1643.934112 1707.30922752 C 1643.934112 1710.57322752 1643.070112 1713.64522752 1641.342112 1716.52522752 C 1639.614112 1719.40522752 1637.054112 1721.74122752 1633.662112 1723.53322752 C 1630.270112 1725.32522752 1626.270112 1726.22122752 1621.662112 1726.22122752 C 1617.246112 1726.22122752 1613.294112 1725.43722752 1609.806112 1723.86922752 Z M 1659.870112 1674.42922752 C 1662.814112 1669.21322752 1666.830112 1665.13322752 1671.918112 1662.18922752 C 1677.006112 1659.24522752 1682.654112 1657.77322752 1688.862112 1657.77322752 C 1696.158112 1657.77322752 1702.526112 1659.53322752 1707.966112 1663.05322752 C 1713.406112 1666.57322752 1717.374112 1671.56522752 1719.870112 1678.02922752 L 1709.406112 1678.02922752 C 1707.550112 1673.99722752 1704.878112 1670.89322752 1701.390112 1668.71722752 C 1697.902112 1666.54122752 1693.726112 1665.45322752 1688.862112 1665.45322752 C 1684.190112 1665.45322752 1679.998112 1666.54122752 1676.286112 1668.71722752 C 1672.574112 1670.89322752 1669.662112 1673.98122752 1667.550112 1677.98122752 C 1665.438112 1681.98122752 1664.382112 1686.66922752 1664.382112 1692.04522752 C 1664.382112 1697.35722752 1665.438112 1702.01322752 1667.550112 1706.01322752 C 1669.662112 1710.01322752 1672.574112 1713.10122752 1676.286112 1715.27722752 C 1679.998112 1717.45322752 1684.190112 1718.54122752 1688.862112 1718.54122752 C 1693.726112 1718.54122752 1697.902112 1717.46922752 1701.390112 1715.32522752 C 1704.878112 1713.18122752 1707.550112 1710.09322752 1709.406112 1706.06122752 L 1719.870112 1706.06122752 C 1717.374112 1712.46122752 1713.406112 1717.40522752 1707.966112 1720.89322752 C 1702.526112 1724.38122752 1696.158112 1726.12522752 1688.862112 1726.12522752 C 1682.654112 1726.12522752 1677.006112 1724.66922752 1671.918112 1721.75722752 C 1666.830112 1718.84522752 1662.814112 1714.79722752 1659.870112 1709.61322752 C 1656.926112 1704.42922752 1655.454112 1698.57322752 1655.454112 1692.04522752 C 1655.454112 1685.51722752 1656.926112 1679.64522752 1659.870112 1674.42922752 Z M 1769.982112 1725.54922752 L 1754.046112 1698.18922752 L 1743.486112 1698.18922752 L 1743.486112 1725.54922752 L 1734.750112 1725.54922752 L 1734.750112 1658.63722752 L 1756.350112 1658.63722752 C 1761.406112 1658.63722752 1765.678112 1659.50122752 1769.166112 1661.22922752 C 1772.654112 1662.95722752 1775.262112 1665.29322752 1776.990112 1668.23722752 C 1778.718112 1671.18122752 1779.582112 1674.54122752 1779.582112 1678.31722752 C 1779.582112 1682.92522752 1778.254112 1686.98922752 1775.598112 1690.50922752 C 1772.942112 1694.02922752 1768.958112 1696.36522752 1763.646112 1697.51722752 L 1780.446112 1725.54922752 L 1769.982112 1725.54922752 Z M 1743.486112 1691.18122752 L 1756.350112 1691.18122752 C 1761.086112 1691.18122752 1764.638112 1690.01322752 1767.006112 1687.67722752 C 1769.374112 1685.34122752 1770.558112 1682.22122752 1770.558112 1678.31722752 C 1770.558112 1674.34922752 1769.390112 1671.27722752 1767.054112 1669.10122752 C 1764.718112 1666.92522752 1761.150112 1665.83722752 1756.350112 1665.83722752 L 1743.486112 1665.83722752 L 1743.486112 1691.18122752 Z M 1803.774112 1658.63722752 L 1803.774112 1725.54922752 L 1795.038112 1725.54922752 L 1795.038112 1658.63722752 L 1803.774112 1658.63722752 Z M 1859.598112 1692.09322752 C 1855.790112 1695.77322752 1849.982112 1697.61322752 1842.174112 1697.61322752 L 1829.310112 1697.61322752 L 1829.310112 1725.54922752 L 1820.574112 1725.54922752 L 1820.574112 1658.63722752 L 1842.174112 1658.63722752 C 1849.726112 1658.63722752 1855.470112 1660.46122752 1859.406112 1664.10922752 C 1863.342112 1667.75722752 1865.310112 1672.46122752 1865.310112 1678.22122752 C 1865.310112 1683.78922752 1863.406112 1688.41322752 1859.598112 1692.09322752 Z M 1852.926112 1687.24522752 C 1855.230112 1685.13322752 1856.382112 1682.12522752 1856.382112 1678.22122752 C 1856.382112 1669.96522752 1851.646112 1665.83722752 1842.174112 1665.83722752 L 1829.310112 1665.83722752 L 1829.310112 1690.41322752 L 1842.174112 1690.41322752 C 1847.038112 1690.41322752 1850.622112 1689.35722752 1852.926112 1687.24522752 Z M 1919.262112 1658.63722752 L 1919.262112 1665.74122752 L 1901.022112 1665.74122752 L 1901.022112 1725.54922752 L 1892.286112 1725.54922752 L 1892.286112 1665.74122752 L 1873.950112 1665.74122752 L 1873.950112 1658.63722752 L 1919.262112 1658.63722752 Z M 1940.670112 1658.63722752 L 1940.670112 1725.54922752 L 1931.934112 1725.54922752 L 1931.934112 1658.63722752 L 1940.670112 1658.63722752 Z M 1970.814112 1721.85322752 C 1965.694112 1718.94122752 1961.646112 1714.87722752 1958.670112 1709.66122752 C 1955.694112 1704.44522752 1954.206112 1698.57322752 1954.206112 1692.04522752 C 1954.206112 1685.51722752 1955.694112 1679.64522752 1958.670112 1674.42922752 C 1961.646112 1669.21322752 1965.694112 1665.14922752 1970.814112 1662.23722752 C 1975.934112 1659.32522752 1981.598112 1657.86922752 1987.806112 1657.86922752 C 1994.078112 1657.86922752 1999.774112 1659.32522752 2004.894112 1662.23722752 C 2010.014112 1665.14922752 2014.046112 1669.19722752 2016.990112 1674.38122752 C 2019.934112 1679.56522752 2021.406112 1685.45322752 2021.406112 1692.04522752 C 2021.406112 1698.63722752 2019.934112 1704.52522752 2016.990112 1709.70922752 C 2014.046112 1714.89322752 2010.014112 1718.94122752 2004.894112 1721.85322752 C 1999.774112 1724.76522752 1994.078112 1726.22122752 1987.806112 1726.22122752 C 1981.598112 1726.22122752 1975.934112 1724.76522752 1970.814112 1721.85322752 Z M 2000.430112 1715.37322752 C 2004.174112 1713.19722752 2007.118112 1710.09322752 2009.262112 1706.06122752 C 2011.406112 1702.02922752 2012.478112 1697.35722752 2012.478112 1692.04522752 C 2012.478112 1686.66922752 2011.406112 1681.98122752 2009.262112 1677.98122752 C 2007.118112 1673.98122752 2004.190112 1670.89322752 2000.478112 1668.71722752 C 1996.766112 1666.54122752 1992.542112 1665.45322752 1987.806112 1665.45322752 C 1983.070112 1665.45322752 1978.846112 1666.54122752 1975.134112 1668.71722752 C 1971.422112 1670.89322752 1968.494112 1673.98122752 1966.350112 1677.98122752 C 1964.206112 1681.98122752 1963.134112 1686.66922752 1963.134112 1692.04522752 C 1963.134112 1697.35722752 1964.206112 1702.02922752 1966.350112 1706.06122752 C 1968.494112 1710.09322752 1971.438112 1713.19722752 1975.182112 1715.37322752 C 1978.926112 1717.54922752 1983.134112 1718.63722752 1987.806112 1718.63722752 C 1992.478112 1718.63722752 1996.686112 1717.54922752 2000.430112 1715.37322752 Z M 2087.454112 1725.54922752 L 2078.718112 1725.54922752 L 2043.582112 1672.26922752 L 2043.582112 1725.54922752 L 2034.846112 1725.54922752 L 2034.846112 1658.54122752 L 2043.582112 1658.54122752 L 2078.718112 1711.72522752 L 2078.718112 1658.54122752 L 2087.454112 1658.54122752 L 2087.454112 1725.54922752 Z M 2113.614112 1723.86922752 C 2110.126112 1722.30122752 2107.390112 1720.12522752 2105.406112 1717.34122752 C 2103.422112 1714.55722752 2102.398112 1711.34122752 2102.334112 1707.69322752 L 2111.646112 1707.69322752 C 2111.966112 1710.82922752 2113.262112 1713.46922752 2115.534112 1715.61322752 C 2117.806112 1717.75722752 2121.118112 1718.82922752 2125.470112 1718.82922752 C 2129.630112 1718.82922752 2132.910112 1717.78922752 2135.310112 1715.70922752 C 2137.710112 1713.62922752 2138.910112 1710.95722752 2138.910112 1707.69322752 C 2138.910112 1705.13322752 2138.206112 1703.05322752 2136.798112 1701.45322752 C 2135.390112 1699.85322752 2133.630112 1698.63722752 2131.518112 1697.80522752 C 2129.406112 1696.97322752 2126.558112 1696.07722752 2122.974112 1695.11722752 C 2118.558112 1693.96522752 2115.022112 1692.81322752 2112.366112 1691.66122752 C 2109.710112 1690.50922752 2107.438112 1688.70122752 2105.550112 1686.23722752 C 2103.662112 1683.77322752 2102.718112 1680.46122752 2102.718112 1676.30122752 C 2102.718112 1672.65322752 2103.646112 1669.42122752 2105.502112 1666.60522752 C 2107.358112 1663.78922752 2109.966112 1661.61322752 2113.326112 1660.07722752 C 2116.686112 1658.54122752 2120.542112 1657.77322752 2124.894112 1657.77322752 C 2131.166112 1657.77322752 2136.302112 1659.34122752 2140.302112 1662.47722752 C 2144.302112 1665.61322752 2146.558112 1669.77322752 2147.070112 1674.95722752 L 2137.470112 1674.95722752 C 2137.150112 1672.39722752 2135.806112 1670.14122752 2133.438112 1668.18922752 C 2131.070112 1666.23722752 2127.934112 1665.26122752 2124.030112 1665.26122752 C 2120.382112 1665.26122752 2117.406112 1666.20522752 2115.102112 1668.09322752 C 2112.798112 1669.98122752 2111.646112 1672.62122752 2111.646112 1676.01322752 C 2111.646112 1678.44522752 2112.334112 1680.42922752 2113.710112 1681.96522752 C 2115.086112 1683.50122752 2116.782112 1684.66922752 2118.798112 1685.46922752 C 2120.814112 1686.26922752 2123.646112 1687.18122752 2127.294112 1688.20522752 C 2131.710112 1689.42122752 2135.262112 1690.62122752 2137.950112 1691.80522752 C 2140.638112 1692.98922752 2142.942112 1694.81322752 2144.862112 1697.27722752 C 2146.782112 1699.74122752 2147.742112 1703.08522752 2147.742112 1707.30922752 C 2147.742112 1710.57322752 2146.878112 1713.64522752 2145.150112 1716.52522752 C 2143.422112 1719.40522752 2140.862112 1721.74122752 2137.470112 1723.53322752 C 2134.078112 1725.32522752 2130.078112 1726.22122752 2125.470112 1726.22122752 C 2121.054112 1726.22122752 2117.102112 1725.43722752 2113.614112 1723.86922752 Z"/></svg>